<svg xmlns="http://www.w3.org/2000/svg" enable-background="new 0 0 1000 1000" viewBox="0 0 1000 1000" id="science-and-research"><path fill="#91ce74" d="M0 0h1000v1000H0z"></path><g opacity=".4"><path fill="none" stroke="#424242" stroke-miterlimit="10" stroke-width="6" d="m270.511 228.101 33.455 57.989-33.455 57.989h-66.91l-33.455-57.989 33.455-57.989z"></path><path fill="#424242" stroke="#424242" stroke-miterlimit="10" stroke-width="6" d="M386.489 295.011 419.944 353l-33.455 57.989h-66.911L286.123 353l33.455-57.989z"></path><path fill="none" stroke="#424242" stroke-miterlimit="10" stroke-width="6" d="m386.489 428.832 33.455 57.988-33.455 57.989h-66.911l-33.455-57.989 33.455-57.988zM502.466 228.101l33.455 57.989-33.455 57.989h-66.91l-33.455-57.989 33.455-57.989z"></path><path fill="#424242" stroke="#424242" stroke-miterlimit="10" stroke-width="6" d="m502.466 361.921 33.455 57.989-33.455 57.989h-66.91l-33.455-57.989 33.455-57.989zM618.444 161.191l33.455 57.989-33.455 57.988h-66.91l-33.455-57.988 33.455-57.989z"></path><path fill="none" stroke="#424242" stroke-miterlimit="10" stroke-width="6" d="M618.444 295.011 651.899 353l-33.455 57.989h-66.91L518.079 353l33.455-57.989zM618.444 428.832l33.455 57.988-33.455 57.989h-66.91l-33.455-57.989 33.455-57.988z"></path><path fill="#424242" stroke="#424242" stroke-miterlimit="10" stroke-width="6" d="m734.422 361.921 33.455 57.989-33.455 57.989h-66.911l-33.455-57.989 33.455-57.989zM850.399 161.191l33.455 57.989-33.455 57.988h-66.91l-33.455-57.988 33.455-57.989z"></path><path fill="none" stroke="#424242" stroke-miterlimit="10" stroke-width="6" d="M850.399 295.011 883.854 353l-33.455 57.989h-66.91L750.034 353l33.455-57.989z"></path></g><path fill="#fff" d="M850 766c-10.493 0-19-8.507-19-19V598h38v149c0 10.493-8.507 19-19 19z"></path><path fill="#d8d8d8" d="M872 582h-44a8 8 0 0 0 0 16h44a8 8 0 0 0 0-16z"></path><path fill="none" stroke="#30292c" stroke-linecap="round" stroke-linejoin="round" stroke-miterlimit="10" stroke-width="4" d="M850 766h0c-10.493 0-19-8.507-19-19V598h38v149c0 10.493-8.507 19-19 19zM872 582h-44a8 8 0 0 0-8 8h0a8 8 0 0 0 8 8h44a8 8 0 0 0 8-8h0a8 8 0 0 0-8-8z"></path><path fill="#ff415b" d="M840 693v54c0 5.514 4.486 10 10 10s10-4.486 10-10v-54h-20z"></path><path fill="none" stroke="#30292c" stroke-linecap="round" stroke-linejoin="round" stroke-miterlimit="10" stroke-width="4" d="M840 693v54c0 5.514 4.486 10 10 10s10-4.486 10-10v-54h-20z"></path><circle cx="844.951" cy="559.76" r="3.192" fill="#ec1ce4"></circle><circle cx="832.497" cy="524.333" r="7.219" fill="#ff415b"></circle><circle cx="866.372" cy="551.933" r="6.187" fill="#ff415b"></circle><circle cx="844.951" cy="559.76" r="3.192" fill="none" stroke="#133b4f" stroke-linecap="round" stroke-linejoin="round" stroke-miterlimit="10" stroke-width="4"></circle><circle cx="852.034" cy="538.49" r="2.062" fill="none" stroke="#133b4f" stroke-linecap="round" stroke-linejoin="round" stroke-miterlimit="10" stroke-width="4"></circle><circle cx="832.497" cy="524.333" r="7.219" fill="none" stroke="#133b4f" stroke-linecap="round" stroke-linejoin="round" stroke-miterlimit="10" stroke-width="4"></circle><circle cx="866.372" cy="551.933" r="6.187" fill="none" stroke="#133b4f" stroke-linecap="round" stroke-linejoin="round" stroke-miterlimit="10" stroke-width="4"></circle><circle cx="846.508" cy="653.417" r="7.25" fill="#ff415b"></circle><circle cx="846.508" cy="653.417" r="7.25" fill="none" stroke="#30292c" stroke-linecap="round" stroke-linejoin="round" stroke-miterlimit="10" stroke-width="4"></circle><circle cx="852.75" cy="678.083" r="3.083" fill="#ff415b"></circle><circle cx="852.75" cy="678.083" r="3.083" fill="none" stroke="#30292c" stroke-linecap="round" stroke-linejoin="round" stroke-miterlimit="10" stroke-width="4"></circle><circle cx="856.842" cy="612.034" r="4.286" fill="#ff415b"></circle><circle cx="856.842" cy="612.034" r="4.286" fill="none" stroke="#30292c" stroke-linecap="round" stroke-linejoin="round" stroke-miterlimit="10" stroke-width="4"></circle><circle cx="841.758" cy="605.281" r="1.619" fill="#67cc70"></circle><circle cx="841.758" cy="605.281" r="1.619" fill="none" stroke="#30292c" stroke-linecap="round" stroke-linejoin="round" stroke-miterlimit="10" stroke-width="4"></circle><circle cx="851.235" cy="708.568" r="1.568" fill="#30292c"></circle><circle cx="842.625" cy="725.375" r="2.625" fill="#30292c"></circle><circle cx="854.307" cy="738.372" r="3.76" fill="#30292c"></circle><circle cx="848.735" cy="703.943" r=".568" fill="#30292c"></circle><path fill="#fff" d="M782.126 766c-10.493 0-19-8.507-19-19V598h38v149c0 10.493-8.507 19-19 19z"></path><path fill="none" stroke="#30292c" stroke-linecap="round" stroke-linejoin="round" stroke-miterlimit="10" stroke-width="4" d="M782.126 766h0c-10.493 0-19-8.507-19-19V598h38v149c0 10.493-8.507 19-19 19z"></path><path fill="#ce7867" d="M766.376 562.333h31.5V598h-31.5z"></path><path fill="none" stroke="#30292c" stroke-linecap="round" stroke-linejoin="round" stroke-miterlimit="10" stroke-width="4" d="M766.376 562.333h31.5V598h-31.5z"></path><path fill="#d8d8d8" d="M804.126 582h-44a8 8 0 0 0 0 16h44a8 8 0 0 0 0-16z"></path><path fill="none" stroke="#30292c" stroke-linecap="round" stroke-linejoin="round" stroke-miterlimit="10" stroke-width="4" d="M804.126 582h-44a8 8 0 0 0-8 8h0a8 8 0 0 0 8 8h44a8 8 0 0 0 8-8h0a8 8 0 0 0-8-8z"></path><path fill="#5cecff" d="M772.126 640v107c0 5.514 4.486 10 10 10s10-4.486 10-10V640h-20z"></path><path fill="none" stroke="#30292c" stroke-linecap="round" stroke-linejoin="round" stroke-miterlimit="10" stroke-width="4" d="M772.126 640v107c0 5.514 4.486 10 10 10s10-4.486 10-10V640h-20z"></path><circle cx="775.75" cy="670" r="3" fill="#30292c"></circle><circle cx="775.75" cy="616.75" r="5" fill="#5cecff"></circle><circle cx="775.75" cy="616.75" r="5" fill="none" stroke="#30292c" stroke-linecap="round" stroke-linejoin="round" stroke-miterlimit="10" stroke-width="4"></circle><circle cx="788.417" cy="686" r="2" fill="#30292c"></circle><circle cx="780.545" cy="738.372" r="1.795" fill="#30292c"></circle><circle cx="781.545" cy="728.205" r="2.872" fill="#30292c"></circle><path fill="#fff" d="M367.581 683a3.081 3.081 0 0 1-3.081-3.081V669h-24v10.919a3.081 3.081 0 0 1-3.081 3.081h-1C329.56 683 324 688.56 324 695.419v63.301c0 5.953 4.826 10.779 10.779 10.779h34.441c5.953 0 10.78-4.826 10.78-10.78v-63.301c0-6.858-5.56-12.418-12.419-12.418z"></path><path fill="none" stroke="#30292c" stroke-linecap="round" stroke-linejoin="round" stroke-miterlimit="10" stroke-width="4" d="M367.581 683h0a3.081 3.081 0 0 1-3.081-3.081V669h-24v10.919a3.081 3.081 0 0 1-3.081 3.081h-1C329.56 683 324 688.56 324 695.419v63.301c0 5.953 4.826 10.779 10.779 10.779h34.441c5.953 0 10.78-4.826 10.78-10.78v-63.301c0-6.858-5.56-12.418-12.419-12.418z"></path><path fill="#ccc" d="M332 669v-9.82a4.18 4.18 0 0 1 4.18-4.18h33.64a4.18 4.18 0 0 1 4.18 4.18V669"></path><path fill="none" stroke="#30292c" stroke-linecap="round" stroke-linejoin="round" stroke-miterlimit="10" stroke-width="4" d="M374 669h-42v-9.82a4.18 4.18 0 0 1 4.18-4.18h33.64a4.18 4.18 0 0 1 4.18 4.18V669z"></path><path fill="#5cecff" d="M371.95 700c-.252-2.247-2.136-4-4.45-4-.93 0-1.794.283-2.512.766A6.994 6.994 0 0 0 358 690a7 7 0 0 0-7 7v1.5a5.5 5.5 0 1 0-11 0c0 .521-1 1.171-1 1a3.5 3.5 0 1 0-7 0c0 .171.027.335.05.5H332v58.721a2.779 2.779 0 0 0 2.779 2.779h34.441a2.779 2.779 0 0 0 2.779-2.779V700h-.049z"></path><circle cx="341.712" cy="712.091" r="2.909" fill="#30292c"></circle><circle cx="352.901" cy="726.281" r="1.099" fill="#30292c"></circle><circle cx="351.901" cy="682.281" r="1.099" fill="#30292c"></circle><circle cx="345.401" cy="685.781" r=".599" fill="#30292c"></circle><circle cx="362.401" cy="747.781" r="1.599" fill="#30292c"></circle><circle cx="359.901" cy="711.281" r="1.099" fill="#30292c"></circle><path fill="none" stroke="#30292c" stroke-linecap="round" stroke-linejoin="round" stroke-miterlimit="10" stroke-width="4" d="M371.95 700c-.252-2.247-2.136-4-4.45-4-.93 0-1.794.283-2.512.766A6.994 6.994 0 0 0 358 690a7 7 0 0 0-7 7v1.5a5.5 5.5 0 1 0-11 0c0 .521-1 1.171-1 1a3.5 3.5 0 1 0-7 0c0 .171.027.335.05.5H332v58.721a2.779 2.779 0 0 0 2.779 2.779h34.441a2.779 2.779 0 0 0 2.779-2.779V700h-.049z"></path><path fill="#ccc" d="M660.25 728h-227c-7.732 0-14 6.268-14 14v14c0 7.732 6.268 14 14 14h10.303c2.299-7.525 9.295-13 17.573-13h171.248c8.278 0 15.273 5.475 17.573 13h10.303c7.732 0 14-6.268 14-14v-14c0-7.732-6.268-14-14-14z"></path><path fill="none" stroke="#30292c" stroke-linecap="round" stroke-linejoin="round" stroke-miterlimit="10" stroke-width="4" d="M660.25 728h-227c-7.732 0-14 6.268-14 14v14c0 7.732 6.268 14 14 14h10.303c2.299-7.525 9.295-13 17.573-13h171.248c8.278 0 15.273 5.475 17.573 13h10.303c7.732 0 14-6.268 14-14v-14c0-7.732-6.268-14-14-14z"></path><path fill="#fff" d="M280.167 614c-9.389 0-17-7.611-17-17v-15h-40v15c0 9.389-7.611 17-17 17-13.255 0-24 10.745-24 24v108c0 13.255 10.745 24 24 24h74c13.255 0 24-10.745 24-24V638c0-13.255-10.745-24-24-24z"></path><circle cx="254.992" cy="642.498" r="3.498" fill="#ff415b"></circle><circle cx="254.992" cy="642.498" r="3.498" fill="none" stroke="#30292c" stroke-linecap="round" stroke-linejoin="round" stroke-miterlimit="10" stroke-width="4"></circle><path fill="#ff415b" d="M190.167 645v101c0 8.822 7.178 16 16 16h74c8.822 0 16-7.178 16-16V645h-106z"></path><path fill="none" stroke="#30292c" stroke-linecap="round" stroke-linejoin="round" stroke-miterlimit="10" stroke-width="4" d="M280.167 614h0c-9.389 0-17-7.611-17-17v-15h-40v15c0 9.389-7.611 17-17 17h0c-13.255 0-24 10.745-24 24v108c0 13.255 10.745 24 24 24h74c13.255 0 24-10.745 24-24V638c0-13.255-10.745-24-24-24z"></path><path fill="#8e5645" d="M214.167 566h58v28h-58z"></path><path fill="#ae6553" d="M219 566h6v28h-6zM233.333 566h6v28h-6zM247.667 566h6v28h-6zM262 566h6v28h-6z"></path><path fill="#8e5645" d="M269 566h-51.667v-2.322a6.678 6.678 0 0 1 6.678-6.678h38.311a6.678 6.678 0 0 1 6.678 6.678V566z"></path><path fill="none" stroke="#30292c" stroke-linecap="round" stroke-linejoin="round" stroke-miterlimit="10" stroke-width="4" d="M214.167 566h58v28h-58zM269 566h-51.667v-2.322a6.678 6.678 0 0 1 6.678-6.678h38.311a6.678 6.678 0 0 1 6.678 6.678V566zM190.167 645v101c0 8.822 7.178 16 16 16h74c8.822 0 16-7.178 16-16V645h-106z"></path><path fill="#ffc25d" d="M205.167 659h76v56h-76z"></path><path fill="none" stroke="#30292c" stroke-linecap="round" stroke-linejoin="round" stroke-miterlimit="10" stroke-width="4" d="M205.167 659h76v56h-76z"></path><circle cx="198.491" cy="720.477" r="1.568" fill="#30292c"></circle><circle cx="227.881" cy="730.284" r="2.625" fill="#30292c"></circle><circle cx="239.563" cy="743.281" r="3.76" fill="#30292c"></circle><circle cx="275.563" cy="730.281" r="3.76" fill="#30292c"></circle><path fill="none" stroke="#30292c" stroke-linecap="round" stroke-linejoin="round" stroke-miterlimit="10" stroke-width="4" d="M218 674h51M241 687h28M241 698h28"></path><circle cx="225" cy="693" r="7" fill="none" stroke="#30292c" stroke-linecap="round" stroke-linejoin="round" stroke-miterlimit="10" stroke-width="4"></circle><circle cx="235.992" cy="626.113" r="4.883" fill="#ff415b"></circle><circle cx="235.992" cy="626.113" r="4.883" fill="none" stroke="#30292c" stroke-linecap="round" stroke-linejoin="round" stroke-miterlimit="10" stroke-width="4"></circle><circle cx="254.659" cy="619.23" r="2" fill="none" stroke="#30292c" stroke-linecap="round" stroke-linejoin="round" stroke-miterlimit="10" stroke-width="4"></circle><circle cx="280.786" cy="632.435" r="2.872" fill="#30292c"></circle><circle cx="204.786" cy="636.435" r="2.872" fill="#30292c"></circle><path fill="#ccc" d="M638.728 566.741C618.115 603.586 578.72 628.5 533.5 628.5 466.95 628.5 413 574.55 413 508c0-61.914 46.697-112.912 106.791-119.719l-4.11-23.977C445.388 376.746 392 438.137 392 512c0 82.843 67.157 150 150 150 58.704 0 109.523-33.727 134.159-82.857l-37.431-12.402z"></path><path fill="none" stroke="#30292c" stroke-linecap="round" stroke-linejoin="round" stroke-miterlimit="10" stroke-width="4" d="M638.728 566.741C618.115 603.586 578.72 628.5 533.5 628.5 466.95 628.5 413 574.55 413 508c0-61.914 46.697-112.912 106.791-119.719l-4.11-23.977C445.388 376.746 392 438.137 392 512c0 82.843 67.157 150 150 150 58.704 0 109.523-33.727 134.159-82.857l-37.431-12.402z"></path><path fill="#fff" d="M555.167 728h-88v-94c0-24.3 19.699-44 44-44s44 19.699 44 44v94z"></path><circle cx="511.167" cy="633.5" r="27" fill="#00c899"></circle><circle cx="511.167" cy="633.5" r="12" fill="#00c899"></circle><path fill="none" stroke="#30292c" stroke-linecap="round" stroke-linejoin="round" stroke-miterlimit="10" stroke-width="4" d="M555.167 728h-88v-94c0-24.3 19.699-44 44-44h0c24.301 0 44 19.699 44 44v94z"></path><circle cx="511.167" cy="633.5" r="27" fill="none" stroke="#30292c" stroke-linecap="round" stroke-linejoin="round" stroke-miterlimit="10" stroke-width="4"></circle><circle cx="511.167" cy="633.5" r="12" fill="#959595"></circle><circle cx="511.167" cy="633.5" r="12" fill="none" stroke="#30292c" stroke-linecap="round" stroke-linejoin="round" stroke-miterlimit="10" stroke-width="4"></circle><circle cx="661" cy="570" r="27" fill="#fff"></circle><circle cx="661" cy="570" r="27" fill="none" stroke="#30292c" stroke-linecap="round" stroke-linejoin="round" stroke-miterlimit="10" stroke-width="4"></circle><circle cx="661" cy="570" r="12" fill="#959595"></circle><circle cx="661" cy="570" r="12" fill="none" stroke="#30292c" stroke-linecap="round" stroke-linejoin="round" stroke-miterlimit="10" stroke-width="4"></circle><path fill="#00b2c8" d="M506.059 278.121h40v34.5h-40z" transform="rotate(-13.999 526.11 295.395)"></path><path fill="#fff" d="m546.223 272.566-48.675 12.136a3.988 3.988 0 0 1-4.694-2.455l-5.886-15.519 60.158-14.999 2.088 16.466a3.987 3.987 0 0 1-2.991 4.371z"></path><path fill="#fff" d="M527.424 309.138h54v200h-54z" transform="rotate(-13.999 554.478 409.173)"></path><path fill="none" stroke="#30292c" stroke-linecap="round" stroke-linejoin="round" stroke-miterlimit="10" stroke-width="4" d="M527.424 309.138h54v200h-54z" transform="rotate(-13.999 554.478 409.173)"></path><path fill="#959595" d="M548.774 483.017h54v23.5h-54z" transform="rotate(-13.999 575.83 494.81)"></path><path fill="none" stroke="#30292c" stroke-linecap="round" stroke-linejoin="round" stroke-miterlimit="10" stroke-width="4" d="M548.774 483.017h54v23.5h-54z" transform="rotate(-13.999 575.83 494.81)"></path><path fill="none" stroke="#30292c" stroke-linecap="round" stroke-linejoin="round" stroke-miterlimit="10" stroke-width="4" d="M506.059 278.121h40v34.5h-40z" transform="rotate(-13.999 526.11 295.395)"></path><path fill="none" stroke="#30292c" stroke-linecap="round" stroke-linejoin="round" stroke-miterlimit="10" stroke-width="4" d="m546.223 272.566-48.675 12.136a3.988 3.988 0 0 1-4.694-2.455l-5.886-15.519 60.158-14.999 2.088 16.466a3.987 3.987 0 0 1-2.991 4.371zM575.527 435.909l5.666 22.724M546.114 317.94l21.043 84.399M532.687 284.754l4.355 17.466"></path><circle cx="515" cy="376" r="27" fill="#fff"></circle><circle cx="515" cy="376" r="27" fill="none" stroke="#30292c" stroke-linecap="round" stroke-linejoin="round" stroke-miterlimit="10" stroke-width="4"></circle><circle cx="515" cy="376" r="12" fill="#959595"></circle><circle cx="515" cy="376" r="12" fill="none" stroke="#30292c" stroke-linecap="round" stroke-linejoin="round" stroke-miterlimit="10" stroke-width="4"></circle><path fill="#fff" d="m715.954 533.651-162.671 43.937a7 7 0 0 1-8.583-4.933 7 7 0 0 1 4.933-8.583l162.671-43.937a7.001 7.001 0 0 1 3.65 13.516z"></path><path fill="none" stroke="#30292c" stroke-linecap="round" stroke-linejoin="round" stroke-miterlimit="10" stroke-width="4" d="m715.954 533.651-162.671 43.937a7 7 0 0 1-8.583-4.933h0a7 7 0 0 1 4.933-8.583l162.671-43.937a7 7 0 0 1 8.583 4.933v0a7.001 7.001 0 0 1-4.933 8.583z"></path><path fill="#959595" d="m632.174 541.778-74.336 20.078 1.015-8.561 68.135-18.403z"></path><path fill="none" stroke="#30292c" stroke-linecap="round" stroke-linejoin="round" stroke-miterlimit="10" stroke-width="4" d="m632.174 541.778-74.336 20.078 1.015-8.561 68.135-18.403z"></path><path fill="none" stroke="#30292c" stroke-linecap="round" stroke-linejoin="round" stroke-miterlimit="10" stroke-width="8" d="M125 770h804"></path><path fill="none" stroke="#30292c" stroke-linecap="round" stroke-linejoin="round" stroke-miterlimit="10" stroke-width="4" d="M782.126 766h0c-10.493 0-19-8.507-19-19V598h38v149c0 10.493-8.507 19-19 19z"></path><path fill="#ccc" d="M900 741H733v14h29.102c2.7 7.85 10.131 13.5 18.898 13.5s16.198-5.65 18.898-13.5h30.02c2.549 8.114 10.127 14 19.082 14s16.533-5.886 19.082-14H900v-14z"></path><path fill="none" stroke="#30292c" stroke-linecap="round" stroke-linejoin="round" stroke-miterlimit="10" stroke-width="4" d="M900 741H733v14h29.102c2.7 7.85 10.131 13.5 18.898 13.5s16.198-5.65 18.898-13.5h30.02c2.549 8.114 10.127 14 19.082 14s16.533-5.886 19.082-14H900v-14z"></path></svg>